<svg width="195" height="56" viewBox="0 0 195 56" fill="none" xmlns="http://www.w3.org/2000/svg">
<path d="M51.6676 37.3634L80.2948 7.78405L95.3618 7.78405L51.6676 52.9315V37.3634Z" fill="#FF8400"/>
<path d="M15.067 7.85252L43.6943 37.4319L43.6943 53L-1.78087e-06 7.85252L15.067 7.85252Z" fill="#FF8400"/>
<path d="M47.4102 29.7909L26.1022 7.77428H69.2508L47.4102 29.7909Z" fill="#F5FA0A"/>
<path d="M107.397 43.144L115.319 20.2734H119.318L109.035 48H105.797L95.5332 20.2734H99.5132L107.397 43.144ZM136.914 40.7637H125.297L122.688 48H118.918L129.506 20.2734H132.705L143.312 48H139.561L136.914 40.7637ZM126.402 37.7549H135.828L131.105 24.7866L126.402 37.7549ZM168.354 48H164.678L150.72 26.6338V48H147.044V20.2734H150.72L164.716 41.7349V20.2734H168.354V48ZM182.769 34.1938L190.005 20.2734H194.157L184.597 37.6597V48H180.941V37.6597L171.381 20.2734H175.571L182.769 34.1938Z" fill="#FF8400"/>
</svg>